<?xml version="1.0" standalone="no"?>
<!DOCTYPE svg PUBLIC "-//W3C//DTD SVG 20010904//EN"
 "http://www.w3.org/TR/2001/REC-SVG-20010904/DTD/svg10.dtd">
<svg version="1.0" xmlns="http://www.w3.org/2000/svg"
 width="1566.000000pt" height="659.000000pt" viewBox="0 0 1566.000000 659.000000"
 preserveAspectRatio="xMidYMid meet">
<metadata>
Created by potrace 1.16, written by Peter Selinger 2001-2019
</metadata>
<g transform="translate(0.000000,659.000000) scale(0.100000,-0.100000)"
fill="#000000" stroke="none">
<path d="M14324 5045 c-5 -11 -10 -13 -19 -5 -15 13 -30 -3 -20 -20 3 -5 -1
-10 -9 -10 -9 0 -16 -5 -16 -11 0 -5 5 -7 10 -4 6 3 10 2 10 -3 0 -6 -11 -13
-25 -16 -14 -4 -25 -13 -25 -22 0 -8 -6 -17 -14 -20 -8 -3 -17 -27 -21 -55 -5
-33 -12 -49 -21 -49 -12 0 -12 -4 -4 -21 7 -12 8 -25 3 -32 -14 -18 -9 -110 5
-115 7 -2 12 -13 12 -23 0 -11 -4 -18 -9 -14 -15 8 -22 -11 -27 -68 -3 -29 -9
-63 -15 -77 -10 -26 -9 -41 6 -93 5 -18 3 -33 -4 -40 -6 -6 -11 -16 -11 -21 0
-6 5 -4 11 4 8 11 9 6 4 -22 -4 -25 -2 -37 7 -40 9 -3 8 -9 -5 -22 -12 -13
-15 -22 -8 -30 9 -11 7 -51 -4 -83 -2 -7 0 -15 5 -18 6 -4 7 -13 1 -23 -5 -10
-9 -28 -10 -42 0 -14 -1 -50 -2 -80 -2 -30 1 -66 6 -79 6 -17 5 -22 -3 -17 -8
5 -12 0 -12 -14 0 -11 7 -23 15 -26 21 -8 19 -21 -5 -29 -24 -8 -25 -18 -4
-39 8 -9 11 -16 5 -16 -7 0 -7 -8 -1 -26 14 -36 12 -44 -6 -37 -13 5 -14 3 -6
-13 12 -22 4 -194 -9 -194 -5 0 -9 -9 -9 -19 0 -11 -4 -23 -10 -26 -5 -3 -10
1 -10 9 0 9 -7 16 -15 16 -9 0 -18 7 -21 15 -4 8 -14 15 -25 15 -10 0 -23 8
-29 18 -11 16 -11 16 -6 0 4 -15 -1 -17 -42 -15 -38 2 -47 -1 -47 -15 0 -9 -4
-20 -8 -24 -4 -4 -7 1 -7 12 0 11 -9 25 -21 32 -18 12 -25 10 -55 -10 -19 -13
-34 -26 -34 -30 0 -5 -4 -8 -10 -8 -5 0 -10 12 -10 26 0 23 -2 25 -16 13 -9
-7 -33 -13 -54 -14 -28 0 -47 -8 -71 -30 -19 -17 -41 -29 -51 -27 -9 2 -19 -5
-23 -17 -3 -10 -12 -22 -20 -25 -8 -3 -15 -12 -15 -21 0 -9 -9 -15 -21 -15
-17 0 -20 -4 -14 -29 6 -26 4 -28 -20 -23 -14 2 -25 0 -23 -5 2 -5 -12 -22
-29 -37 -18 -15 -33 -32 -33 -37 0 -11 -5 -17 -46 -64 -14 -16 -32 -45 -39
-63 -8 -18 -21 -35 -30 -38 -8 -3 -15 -13 -15 -21 0 -8 -9 -28 -20 -43 -24
-34 -50 -104 -50 -136 0 -13 -7 -25 -17 -28 -13 -4 -18 -17 -19 -43 -1 -56
-16 -143 -23 -139 -3 2 -7 -6 -8 -17 -1 -12 -4 -38 -7 -57 -15 -100 -16 -121
-6 -140 8 -16 9 -30 1 -53 -9 -25 -7 -44 10 -99 11 -37 25 -68 30 -68 6 0 8 4
4 9 -10 18 52 -19 79 -45 22 -22 27 -24 32 -10 7 17 46 16 52 -2 5 -16 29 -15
34 0 3 7 12 -1 22 -18 15 -26 23 -29 60 -29 23 1 46 4 51 7 6 3 26 4 45 2 47
-5 130 15 137 32 3 8 13 14 23 14 11 0 21 4 24 9 3 5 16 7 28 3 17 -4 20 -2
15 11 -4 10 -1 17 6 17 33 0 149 153 216 285 28 55 56 106 62 113 6 7 8 16 5
19 -3 3 4 17 14 31 11 13 20 33 20 43 0 11 5 19 10 19 6 0 10 9 10 19 0 11 5
23 10 26 6 4 8 11 4 17 -3 5 1 24 9 41 9 18 18 40 21 50 12 37 23 6 15 -39 -5
-25 -5 -53 -1 -62 9 -19 9 -73 -1 -89 -6 -9 2 -42 25 -103 7 -16 6 -26 -1 -28
-15 -5 -14 -35 1 -50 9 -9 9 -12 0 -12 -16 0 -11 -42 7 -64 9 -11 10 -16 2
-16 -6 0 -11 -9 -11 -20 0 -11 6 -20 14 -20 8 0 19 -14 25 -30 5 -17 17 -30
27 -30 13 0 15 -7 12 -31 -4 -25 -1 -33 14 -37 10 -2 18 -8 18 -11 0 -4 6 -8
13 -8 6 0 22 -3 34 -7 16 -5 25 -2 33 14 7 13 18 19 26 16 15 -6 17 1 14 54
-1 22 -8 40 -21 49 -23 16 -24 38 -3 63 16 16 15 18 -2 24 -52 16 -70 50 -26
48 21 -1 26 5 20 24 -2 4 -9 7 -17 7 -14 0 -20 17 -25 60 -1 11 -7 30 -13 41
-14 24 -8 35 13 27 8 -3 14 -1 14 5 0 6 -5 12 -11 14 -6 2 -11 32 -11 71 0 51
-4 70 -17 77 -15 9 -15 11 2 21 24 14 11 32 -14 18 -12 -6 -23 -8 -27 -5 -3 3
0 6 6 6 7 0 12 8 12 18 0 10 12 22 30 29 33 13 39 37 13 52 -11 6 -13 11 -5
11 9 0 8 6 -3 24 -13 19 -14 29 -6 45 16 29 14 31 -18 21 -24 -7 -30 -5 -34
11 -6 21 9 37 15 17 7 -20 28 2 28 29 0 14 8 32 18 39 16 13 15 15 -8 34 -21
17 -23 21 -10 31 11 8 12 12 3 16 -7 2 -13 9 -13 14 0 12 47 11 55 -1 4 -6 10
-8 15 -5 19 12 40 -9 46 -45 4 -22 13 -41 20 -44 8 -3 14 -16 14 -29 0 -13 6
-29 12 -35 10 -10 10 -15 -2 -22 -13 -9 -13 -11 0 -20 8 -6 23 -8 32 -6 12 3
22 -6 30 -25 7 -16 19 -29 26 -29 8 0 12 -5 10 -12 -2 -6 4 -20 15 -31 10 -10
16 -25 13 -32 -8 -21 12 -29 72 -32 43 -2 53 1 48 12 -3 8 0 17 5 21 6 4 8 17
3 33 -4 14 -6 36 -5 49 1 19 -3 22 -19 17 -11 -3 -20 -2 -20 4 0 5 9 12 20 16
16 5 18 9 8 25 -7 10 -15 17 -19 14 -4 -2 -11 10 -14 28 -10 44 -24 60 -46 53
-15 -5 -19 -1 -19 19 0 14 -4 28 -10 31 -15 9 -12 25 5 25 8 0 15 7 15 15 0
20 -19 19 -42 -2 -17 -15 -18 -15 -18 0 0 10 6 17 14 17 26 0 28 20 4 29 -15
5 -25 5 -30 -2 -4 -7 -12 -6 -23 3 -14 12 -14 15 7 37 16 17 19 26 11 34 -6 6
-9 17 -7 24 7 18 -20 25 -56 15 -24 -7 -32 -6 -37 6 -3 7 -11 14 -18 14 -18 0
-28 17 -19 31 5 8 9 8 14 -1 10 -16 31 -4 24 14 -5 14 -50 27 -91 26 -25 0
-30 19 -11 38 8 8 8 15 -2 26 -7 9 -10 26 -6 41 4 14 3 25 -1 24 -22 -4 -24 3
-7 22 14 16 15 23 7 26 -15 5 -17 33 -3 33 5 0 12 11 16 24 3 14 12 27 20 30
19 7 18 31 -2 51 -15 15 -16 20 -2 48 15 32 17 94 4 115 -8 13 10 52 24 52 6
0 10 5 10 11 0 5 -4 8 -9 5 -5 -4 -16 -3 -25 0 -12 4 -13 11 -5 32 5 14 8 31
5 38 -3 7 0 14 6 16 6 2 13 20 15 38 9 78 12 95 13 100 1 3 3 10 4 15 0 6 7
20 13 31 15 25 -3 74 -26 74 -12 0 -11 3 1 18 9 9 19 33 22 52 3 19 9 50 12
68 7 35 -10 46 -19 12 -3 -11 -10 -20 -16 -20 -7 0 -6 13 5 38 24 56 28 72 15
72 -9 0 -9 6 0 22 10 19 9 24 -9 36 -20 13 -20 16 -6 37 9 14 13 33 9 44 -5
16 -3 19 9 15 20 -8 9 36 -13 53 -10 8 -12 12 -4 13 9 0 10 7 3 26 -8 21 -6
32 11 55 19 28 20 34 9 75 -7 24 -17 44 -21 44 -5 0 -9 6 -9 14 0 22 -19 30
-26 11z m-372 -1733 c-25 -8 -11 -17 28 -17 29 -1 40 3 41 15 1 11 2 11 6 -2
5 -20 18 -23 28 -8 3 6 10 10 16 10 12 0 12 -57 -1 -65 -6 -4 -8 -15 -5 -25 3
-10 1 -21 -5 -25 -7 -4 -9 -19 -5 -37 5 -20 2 -35 -10 -48 -10 -11 -17 -37
-18 -67 -1 -26 -4 -50 -7 -53 -18 -17 -37 -80 -32 -108 3 -24 -2 -41 -23 -68
-15 -19 -24 -41 -21 -49 3 -8 1 -17 -5 -21 -6 -3 -8 -12 -5 -20 3 -8 -1 -14
-9 -14 -10 0 -15 -10 -15 -29 0 -16 -6 -31 -14 -34 -8 -3 -20 -25 -27 -49 -7
-24 -18 -50 -26 -59 -7 -8 -13 -19 -13 -24 0 -4 -10 -22 -23 -39 -13 -17 -32
-50 -43 -73 -11 -24 -26 -43 -35 -43 -9 0 -22 -7 -29 -15 -7 -8 -19 -15 -26
-15 -17 0 -18 -17 -1 -23 9 -4 8 -8 -3 -16 -11 -8 -18 -7 -25 2 -13 16 -75 19
-75 3 0 -6 -9 -12 -21 -13 -12 -1 -26 -9 -32 -17 -9 -11 -16 -13 -27 -6 -13 8
-13 11 -1 19 19 12 4 33 -22 30 -38 -3 -47 1 -41 16 4 10 0 15 -15 15 -12 0
-21 -4 -21 -10 0 -16 -19 -11 -37 10 -21 24 -33 26 -33 5 0 -8 -7 -15 -15 -15
-12 0 -13 4 -5 19 5 11 10 22 10 25 0 11 -46 6 -59 -6 -7 -8 -6 -1 3 17 23 43
21 58 -7 51 -18 -4 -23 -1 -23 14 0 10 4 16 8 14 4 -3 12 4 17 15 14 25 14 34
0 25 -8 -4 -9 1 -4 16 7 21 5 22 -21 16 -28 -7 -28 -7 -10 13 10 11 23 18 28
15 5 -3 4 3 -3 14 -7 12 -17 18 -21 16 -4 -3 -8 0 -8 6 0 6 7 13 15 16 8 4 15
11 15 18 0 6 7 23 14 38 9 17 11 30 5 34 -6 3 -5 11 2 21 7 8 13 37 13 64 0
27 3 44 7 38 7 -12 19 12 19 42 0 10 5 19 11 19 5 0 8 4 4 10 -9 15 6 60 20
60 7 0 15 8 18 18 8 22 55 103 73 123 8 8 14 23 14 32 0 10 6 14 14 11 7 -3
21 7 31 23 10 15 29 37 42 48 13 11 23 25 23 31 0 14 77 39 113 37 17 -1 27 3
27 12 0 11 7 12 32 4 18 -5 36 -5 40 -1 5 5 31 5 59 2 27 -4 52 -3 55 2 3 4
17 7 31 6 15 -2 28 3 31 10 2 7 9 9 15 5 8 -5 8 -8 -1 -11z"/>
<path d="M1455 4729 c-5 -7 -25 -10 -56 -7 -28 3 -49 1 -49 -5 0 -5 -8 -7 -18
-5 -10 3 -23 -1 -30 -9 -7 -7 -17 -11 -22 -8 -5 3 -29 1 -52 -6 -24 -7 -51
-13 -61 -14 -9 -1 -30 -14 -46 -29 -16 -15 -32 -27 -36 -26 -4 1 -16 -11 -26
-27 -10 -15 -19 -22 -19 -15 0 6 -5 12 -11 12 -16 0 -1 -72 18 -87 30 -23 2
-50 -44 -44 -15 2 -17 -25 -3 -34 6 -3 10 -1 10 4 0 6 10 11 23 11 21 -1 21
-1 3 -15 -19 -14 -19 -15 -1 -35 14 -15 16 -23 7 -32 -8 -8 -15 -8 -26 1 -12
10 -14 9 -9 -8 3 -12 12 -21 19 -21 19 0 18 -5 -11 -34 -20 -21 -24 -30 -16
-45 6 -10 8 -21 5 -23 -2 -3 2 -18 11 -34 8 -16 15 -37 15 -48 0 -15 -3 -16
-15 -6 -13 10 -15 9 -15 -10 0 -14 5 -20 13 -17 6 2 18 -1 25 -9 10 -11 5 -16
-23 -30 -34 -16 -45 -37 -25 -49 6 -3 10 -11 10 -16 0 -6 -4 -7 -10 -4 -5 3
-10 1 -10 -4 0 -6 5 -11 10 -11 6 0 10 -7 10 -15 0 -9 7 -18 15 -21 12 -5 11
-9 -5 -27 -21 -22 -26 -52 -10 -62 5 -3 7 -12 4 -19 -3 -8 -1 -17 5 -20 7 -5
7 -15 1 -32 -13 -33 -13 -34 6 -34 11 0 14 -5 9 -17 -8 -21 -8 -22 -6 -47 1
-12 6 -16 17 -12 14 5 15 4 5 -8 -10 -11 -8 -17 6 -25 12 -7 13 -10 4 -11 -10
0 -12 -10 -7 -41 5 -29 3 -38 -5 -34 -8 6 -8 2 0 -12 7 -14 7 -23 -2 -32 -9
-9 -9 -14 0 -19 10 -6 10 -15 0 -43 -6 -18 -16 -37 -22 -41 -6 -5 -5 -11 3
-16 10 -7 10 -11 -3 -22 -19 -16 -19 -34 1 -54 9 -10 13 -24 9 -36 -5 -15 -2
-20 13 -20 11 0 22 -9 25 -20 3 -12 0 -20 -8 -20 -23 0 -40 -56 -20 -67 21
-13 26 -48 10 -69 -8 -10 -14 -28 -14 -39 0 -19 1 -19 19 4 24 28 25 22 4 -23
-18 -36 -12 -85 6 -56 11 17 15 7 24 -52 4 -35 3 -38 -20 -38 -25 0 -30 -14
-15 -39 11 -17 71 -26 71 -11 0 7 7 7 20 0 26 -14 26 -37 0 -45 -11 -3 -20
-14 -20 -23 0 -10 -9 -23 -20 -30 -11 -7 -20 -21 -20 -31 0 -11 -5 -23 -11
-27 -6 -3 2 -14 20 -25 34 -21 41 -49 12 -49 -20 0 -36 -46 -19 -57 6 -3 8
-22 5 -43 -5 -36 -4 -37 40 -48 38 -11 43 -15 33 -27 -7 -8 -9 -23 -5 -32 6
-17 7 -17 21 1 8 11 14 15 14 8 0 -6 -9 -20 -21 -31 -18 -17 -19 -22 -7 -42 7
-13 19 -28 25 -32 7 -4 13 -19 13 -32 0 -20 5 -25 26 -25 14 0 34 5 45 10 15
8 19 7 19 -5 0 -8 6 -15 14 -15 8 0 16 -5 18 -11 8 -23 46 2 62 41 8 21 20 41
26 45 6 3 8 10 5 15 -3 5 -1 19 5 30 8 14 7 29 -4 55 -10 22 -11 37 -5 41 6 3
14 17 20 31 5 13 13 21 19 18 6 -3 27 -1 48 6 20 6 43 13 51 16 11 2 11 6 1
18 -10 13 -9 15 9 15 13 0 29 7 38 15 11 12 19 13 28 5 10 -9 16 -6 25 9 6 12
19 21 30 21 10 0 22 9 25 20 4 11 11 18 16 15 5 -4 9 1 9 9 0 9 8 16 19 16 11
0 23 5 26 10 3 6 15 10 25 10 10 0 23 6 27 13 4 6 17 17 28 23 11 6 24 20 30
32 5 12 18 25 28 28 13 4 17 12 14 26 -5 17 -2 19 18 16 14 -3 26 0 29 8 3 8
12 14 21 14 18 0 20 16 3 24 -7 3 -4 4 7 1 16 -4 23 2 32 24 7 19 23 35 45 44
19 8 45 29 58 47 23 32 23 33 5 46 -18 14 -17 16 15 18 9 1 14 10 12 24 -2 20
1 22 19 17 19 -6 21 -4 17 19 -4 20 -1 26 13 26 10 0 19 9 21 22 4 25 28 37
28 13 0 -9 5 -13 10 -10 6 4 8 15 5 26 -5 14 -2 19 10 19 13 0 16 6 12 27 -6
30 34 103 57 103 15 0 25 25 32 79 5 38 29 88 44 93 6 2 13 15 15 30 4 22 2
26 -10 22 -21 -8 -19 14 6 71 26 58 33 113 18 132 -10 11 -8 17 9 29 25 17 28
46 9 66 -17 17 -29 48 -18 48 4 0 8 25 8 55 0 41 -4 55 -16 58 -14 4 -14 5 0
6 22 1 31 60 14 85 -8 10 -11 29 -9 42 3 18 1 22 -11 18 -18 -7 -18 -4 -6 29
7 19 6 27 -3 30 -13 5 -15 34 -4 53 4 6 -2 18 -13 27 -10 9 -19 26 -19 37 0
11 -7 23 -15 26 -8 4 -15 10 -15 16 0 5 5 6 10 3 25 -16 6 30 -25 59 -19 19
-35 38 -35 44 0 5 -7 13 -16 16 -9 4 -13 13 -10 24 7 20 -57 92 -81 92 -7 0
-13 5 -13 10 0 6 -9 10 -19 10 -11 0 -23 5 -26 10 -3 6 -17 10 -31 10 -13 0
-24 5 -24 11 0 7 -9 9 -22 6 -13 -4 -29 0 -38 7 -18 17 -146 30 -285 31 -55 0
-106 4 -113 9 -9 5 -19 3 -29 -7 -12 -12 -23 -13 -50 -5 -20 5 -46 7 -60 3
-14 -3 -31 -1 -38 5 -10 8 -15 8 -20 -1z m406 -126 c41 -4 94 -7 119 -8 25 0
49 -6 53 -12 4 -7 14 -13 22 -13 7 0 17 -9 20 -21 5 -15 10 -17 20 -9 10 8 15
3 24 -21 6 -17 9 -35 6 -39 -6 -10 22 -40 36 -40 5 0 9 9 9 21 0 12 4 17 11
13 6 -3 9 -19 7 -35 -3 -17 1 -30 9 -33 16 -6 17 -38 2 -53 -7 -7 -8 -20 -3
-34 5 -13 9 -31 9 -39 0 -15 28 -18 58 -5 32 13 30 -3 -2 -20 -30 -15 -31 -17
-18 -43 7 -15 12 -35 10 -44 -3 -11 1 -18 11 -18 9 0 16 7 16 15 0 8 5 15 10
15 17 0 11 -21 -12 -41 l-23 -19 22 -18 c28 -24 15 -54 -13 -31 -16 12 -17 12
-11 -4 4 -12 0 -26 -13 -39 -14 -16 -17 -25 -9 -34 6 -7 7 -18 3 -25 -5 -8 1
-10 20 -7 32 6 45 -8 15 -17 -12 -4 -18 -12 -15 -21 3 -9 -2 -18 -14 -22 -19
-7 -19 -9 9 -42 17 -19 30 -40 31 -45 0 -6 11 -22 24 -36 16 -18 21 -30 15
-40 -5 -8 -6 -21 -4 -30 4 -12 -3 -18 -25 -22 -22 -5 -30 -12 -30 -27 0 -17
-4 -20 -21 -15 -24 8 -24 3 -3 -92 5 -25 3 -33 -8 -33 -8 0 -23 -7 -34 -15
-18 -14 -18 -16 -1 -26 23 -14 22 -32 -3 -24 -22 7 -29 -18 -9 -31 8 -4 8 -9
0 -17 -17 -17 -13 -27 7 -20 15 6 15 4 -2 -15 -11 -12 -26 -21 -35 -20 -10 2
-17 -6 -19 -19 -2 -13 1 -23 6 -23 5 0 12 -14 14 -30 4 -24 1 -29 -11 -25 -10
3 -20 -4 -26 -18 -7 -16 -17 -21 -36 -19 -18 2 -29 -3 -33 -15 -3 -10 -9 -24
-12 -32 -4 -9 -2 -11 5 -7 6 4 11 3 11 -1 0 -5 -16 -15 -35 -22 -35 -12 -58
-40 -54 -64 1 -6 -1 -25 -6 -41 -6 -24 -9 -26 -17 -12 -9 16 -29 23 -27 9 6
-36 -3 -52 -33 -58 -38 -8 -60 -23 -52 -36 5 -9 -16 -13 -44 -10 -7 1 -15 -6
-19 -16 -3 -10 -13 -26 -21 -35 -17 -20 -25 -68 -11 -68 5 0 0 -9 -11 -20 -21
-21 -50 -27 -50 -11 0 5 6 12 13 14 9 4 9 6 -1 6 -7 1 -15 -6 -18 -14 -6 -14
-8 -13 -21 2 -13 17 -14 16 -9 -8 5 -24 2 -26 -47 -35 -39 -7 -54 -14 -62 -31
-5 -13 -15 -23 -22 -23 -7 0 -29 -9 -50 -21 l-37 -21 -16 23 c-8 12 -16 44
-17 70 -1 26 -6 57 -12 68 -6 11 -8 33 -5 47 6 22 4 26 -9 21 -20 -8 -29 3
-16 19 6 8 9 19 6 26 -2 7 -6 18 -7 23 -1 6 -6 20 -11 33 -6 15 -4 30 4 43 10
17 9 22 -6 30 -17 10 -17 12 -2 23 15 11 15 13 1 25 -8 7 -13 18 -10 25 3 8
-2 16 -11 19 -13 6 -13 10 -3 26 10 17 9 24 -10 44 -12 13 -22 30 -22 38 0 11
2 12 9 1 6 -11 10 -10 15 4 4 11 1 21 -9 27 -14 7 -13 11 4 33 19 25 18 52 -2
66 -6 3 -12 29 -13 58 -2 28 -7 56 -11 63 -11 18 -13 148 -3 168 7 12 3 30
-15 63 -13 25 -22 47 -20 47 3 1 9 2 14 3 19 2 22 15 9 35 -9 15 -10 26 -2 38
11 18 0 100 -17 118 -5 5 -9 19 -9 31 0 13 -4 26 -10 29 -17 10 -11 23 8 19
13 -4 17 2 19 23 1 15 4 56 7 91 6 63 1 72 -23 50 -11 -11 -11 -9 -2 10 6 12
17 22 22 22 6 0 9 7 5 15 -3 8 -1 15 4 15 5 0 9 10 7 21 -1 15 4 23 18 25 11
2 37 7 58 10 21 4 36 11 34 17 -2 6 2 23 9 36 17 33 10 40 -30 31 -24 -5 -36
-4 -39 4 -3 8 -10 7 -26 -2 -23 -13 -41 -9 -41 11 0 7 -6 24 -14 38 -12 23
-11 27 6 38 15 9 17 15 8 26 -14 17 -2 25 60 43 67 19 91 22 265 28 88 3 165
7 170 9 6 2 20 2 31 0 12 -3 55 -8 95 -12z"/>
<path d="M9085 4110 c-3 -5 -3 -14 0 -20 3 -5 -1 -10 -9 -10 -8 0 -18 4 -21
10 -10 16 -65 -17 -58 -36 3 -8 -2 -21 -12 -28 -11 -8 -16 -20 -12 -30 4 -10
-1 -24 -13 -36 -11 -11 -20 -23 -20 -28 0 -10 -59 -62 -71 -62 -4 0 -16 -16
-25 -35 -10 -23 -23 -35 -36 -35 -15 0 -19 -5 -15 -19 3 -14 1 -18 -9 -14 -8
3 -14 -1 -14 -11 0 -9 -4 -16 -10 -16 -5 0 -10 -9 -10 -20 0 -11 -4 -20 -10
-20 -5 0 -10 -6 -10 -14 0 -7 -15 -17 -32 -23 -27 -7 -32 -13 -30 -33 2 -18 0
-21 -6 -12 -12 18 -23 -8 -15 -37 3 -12 1 -21 -6 -21 -7 0 -23 -11 -35 -25
-13 -14 -29 -24 -36 -23 -19 5 -38 -31 -22 -40 10 -7 9 -15 -3 -40 -17 -33
-39 -55 -29 -27 4 11 2 14 -9 9 -17 -6 -30 -31 -23 -43 3 -4 -5 -8 -17 -8 -28
-3 -88 -72 -81 -95 4 -12 0 -18 -11 -18 -9 0 -27 -11 -39 -24 -39 -38 -61 -38
-79 -1 -9 18 -13 42 -10 54 6 23 -6 28 -24 10 -14 -14 -38 25 -27 43 5 8 2 9
-10 5 -14 -5 -16 -3 -11 13 4 12 -2 27 -17 42 -13 13 -24 28 -24 33 -1 6 -2
15 -3 22 0 6 -11 14 -23 16 -20 4 -19 4 5 6 36 1 34 16 -5 52 -18 16 -34 34
-34 39 -3 21 -4 22 -18 11 -17 -14 -29 0 -20 23 10 26 -4 66 -21 60 -9 -4 -15
0 -15 10 0 9 -7 16 -15 16 -17 0 -21 16 -5 22 18 6 0 62 -31 97 -16 19 -29 40
-29 47 0 16 -26 19 -34 5 -3 -5 -15 -7 -26 -4 -17 5 -20 0 -20 -31 0 -34 -8
-44 -23 -29 -4 3 -2 12 4 20 8 9 8 13 1 13 -16 0 -30 -30 -25 -50 3 -11 -3
-19 -16 -23 -12 -3 -21 -11 -21 -17 0 -10 3 -10 14 -1 12 10 17 8 26 -8 6 -12
18 -21 27 -21 15 0 15 -2 0 -18 -10 -10 -17 -35 -17 -55 0 -35 1 -36 21 -25
18 11 23 11 27 -1 2 -7 12 -21 21 -30 9 -9 15 -28 13 -43 -4 -33 13 -68 33
-68 8 0 19 -9 25 -20 6 -11 17 -20 25 -20 19 0 19 9 -2 32 -16 18 -16 18 8 10
33 -13 35 -68 2 -77 -26 -6 -30 -30 -7 -39 22 -8 22 -8 27 12 3 9 4 1 4 -18
-1 -19 -5 -37 -9 -40 -13 -10 5 -60 23 -65 32 -10 64 -49 65 -79 2 -34 4 -36
48 -43 30 -5 36 -3 36 12 0 31 13 8 16 -29 3 -30 1 -33 -19 -29 -16 4 -18 2
-8 -5 7 -5 16 -33 19 -61 4 -46 3 -51 -13 -44 -15 5 -17 2 -13 -15 4 -14 -2
-30 -20 -49 -14 -15 -28 -28 -31 -29 -24 -3 -41 -20 -41 -39 0 -12 -3 -36 -6
-53 -5 -23 -10 -28 -25 -25 -13 4 -19 0 -19 -11 0 -9 -6 -16 -14 -16 -7 0 -19
-6 -25 -14 -9 -11 -8 -18 4 -30 11 -10 12 -16 4 -16 -7 0 -9 -10 -5 -30 3 -16
1 -30 -4 -30 -5 0 -6 -7 -3 -17 4 -11 3 -14 -5 -9 -35 22 -108 -48 -82 -79 8
-9 6 -14 -5 -19 -8 -3 -15 -14 -15 -25 0 -15 -5 -19 -16 -14 -11 4 -12 8 -4
13 7 4 8 10 3 13 -5 3 -24 -22 -41 -56 -28 -57 -30 -69 -27 -146 2 -45 6 -85
9 -88 3 -3 25 -8 50 -10 35 -4 43 -9 39 -22 -3 -12 0 -11 14 4 10 12 27 24 38
29 11 4 15 10 10 14 -13 9 -17 75 -5 67 16 -10 20 12 5 25 -21 17 -19 30 4 30
11 0 23 9 26 21 4 13 12 18 21 15 8 -3 14 0 13 7 -4 34 2 45 21 40 20 -5 28
11 10 22 -11 7 -2 35 12 35 6 0 7 -8 4 -17 -5 -16 -4 -16 8 1 8 10 19 15 24
12 15 -9 45 69 37 94 -5 15 -4 20 4 16 6 -4 11 -3 11 3 0 5 -4 12 -9 15 -13 9
-1 46 15 46 8 0 14 -7 14 -15 0 -8 4 -15 10 -15 5 0 7 6 4 14 -3 8 -1 17 5 21
6 3 11 13 11 22 0 9 7 24 16 34 12 13 13 22 5 37 -9 17 -7 20 20 26 16 3 32
14 36 23 14 40 25 45 50 22 12 -13 23 -17 23 -11 0 22 27 12 38 -14 7 -14 17
-22 22 -19 18 11 32 -5 19 -21 -6 -8 -9 -17 -6 -20 10 -10 39 5 32 16 -3 5 1
10 9 10 19 0 21 -23 5 -49 -18 -28 -4 -67 23 -66 13 0 28 4 35 8 15 9 25 -7
23 -36 -4 -39 0 -49 14 -44 8 3 20 -1 27 -9 9 -11 15 -12 26 -2 12 10 17 9 25
-6 8 -13 13 -15 24 -5 11 9 14 9 14 0 0 -7 4 -10 9 -6 5 3 12 1 16 -5 3 -6 -1
-13 -9 -16 -18 -7 -16 -42 4 -54 7 -5 10 -15 6 -25 -5 -13 -3 -15 6 -8 31 24
44 22 40 -7 -3 -24 -1 -28 22 -27 32 0 42 13 25 33 -10 13 -10 17 2 24 10 7
16 2 22 -20 8 -33 16 -37 35 -18 10 10 15 10 22 -2 6 -8 8 -20 6 -26 -2 -6 5
-16 15 -22 16 -10 21 -10 25 3 5 13 8 12 22 -2 10 -9 17 -12 20 -5 2 6 10 8
18 5 8 -3 21 -2 29 1 13 5 14 10 5 28 -11 22 -11 22 8 -1 16 -20 20 -21 25 -7
4 9 14 16 24 16 16 1 16 2 -2 12 -11 7 -22 12 -25 12 -7 1 -50 37 -81 69 -15
15 -34 27 -42 27 -9 0 -17 10 -19 23 -2 17 -9 21 -30 19 -24 -2 -28 1 -28 22
0 19 -4 23 -19 19 -12 -3 -19 0 -18 9 1 37 -6 47 -38 58 -19 6 -35 17 -35 23
0 7 -7 21 -15 31 -12 16 -18 17 -27 8 -19 -19 -28 -14 -28 12 0 27 -20 51 -50
61 -15 5 -19 13 -16 28 3 12 3 16 0 10 -10 -23 -25 -14 -18 11 7 28 -14 46
-30 25 -14 -18 -39 -23 -33 -7 2 7 10 12 16 11 6 -2 11 4 11 12 0 8 -7 15 -16
15 -11 0 -13 6 -9 19 5 16 0 20 -20 23 -14 2 -24 8 -23 13 2 6 6 9 10 8 5 -2
8 2 8 7 0 6 -6 10 -14 10 -12 0 -26 40 -26 77 0 13 2 13 17 2 14 -12 16 -12
11 1 -3 8 2 38 11 65 15 45 19 50 44 47 21 -2 27 1 27 18 0 11 5 20 11 20 6 0
8 8 5 18 -5 13 6 22 44 40 45 21 65 42 40 42 -5 0 -10 7 -10 15 0 8 9 15 19
15 10 0 21 7 25 15 3 8 10 15 16 15 5 0 10 -7 10 -15 0 -8 5 -15 11 -15 5 0 9
8 8 18 -1 9 2 26 6 36 6 13 4 21 -3 24 -16 5 -15 27 2 41 11 9 15 9 19 -1 2
-7 8 -9 13 -5 4 4 0 23 -10 41 -19 37 -28 84 -15 91 4 3 10 1 13 -4 8 -12 60
-11 68 3 5 7 8 5 8 -6 0 -25 21 -23 27 3 5 16 11 19 34 14 22 -5 29 -3 29 9 0
9 -4 16 -9 16 -5 0 -7 9 -4 20 7 26 20 25 29 -2 l7 -23 8 23 c5 12 15 22 22
22 8 0 20 7 27 15 11 13 8 15 -13 15 -14 0 -28 -6 -30 -12 -3 -7 -6 -3 -6 9
-1 23 56 63 91 63 17 0 20 5 16 29 -4 25 0 31 19 36 25 6 32 40 11 48 -8 4 -5
8 8 12 12 4 28 22 37 41 10 19 29 39 43 44 17 7 24 15 20 25 -7 19 14 32 24
15 9 -14 40 -7 40 10 0 5 -3 10 -7 10 -5 0 -17 7 -27 15 -14 11 -16 18 -8 28
7 8 7 18 2 27 -7 12 -12 11 -29 -4 -11 -10 -25 -15 -31 -11 -9 6 -9 9 0 15 7
4 10 15 7 24 -7 18 -72 23 -82 6z"/>
<path d="M6588 3944 c-3 -3 -37 -7 -74 -9 -38 -3 -88 -10 -112 -16 -32 -9 -49
-9 -68 -1 -13 7 -24 11 -24 9 0 -1 4 -17 9 -35 7 -24 7 -32 -3 -32 -8 0 -19
-7 -26 -15 -7 -8 -21 -15 -32 -15 -11 0 -18 -5 -16 -12 2 -6 -6 -22 -19 -36
-12 -13 -20 -28 -17 -33 3 -5 0 -9 -6 -9 -8 0 -9 -11 -5 -32 6 -26 5 -30 -8
-25 -11 4 -14 1 -11 -7 3 -8 1 -17 -5 -21 -16 -9 -13 -52 4 -59 8 -3 15 -13
15 -22 0 -10 6 -14 14 -11 8 3 16 -2 19 -12 3 -12 -1 -18 -12 -17 -10 1 -17
-8 -19 -23 -3 -17 0 -21 10 -16 7 3 5 0 -5 -8 -9 -8 -20 -34 -23 -58 -4 -24
-10 -45 -15 -47 -16 -6 -9 -23 9 -20 15 3 18 -10 25 -102 5 -77 4 -111 -5
-129 -11 -20 -10 -25 6 -37 17 -12 17 -14 3 -20 -19 -7 -23 -39 -7 -49 6 -4 4
-15 -5 -29 -14 -21 -14 -24 0 -30 9 -3 13 -10 10 -16 -6 -9 8 -15 29 -11 10 2
-12 -28 -29 -42 -6 -4 0 -10 13 -13 12 -4 22 -11 22 -16 0 -5 -4 -6 -10 -3
-15 10 -12 -13 7 -41 16 -25 16 -25 -12 -18 -20 5 -26 4 -21 -5 4 -6 14 -11
22 -11 20 0 17 -17 -5 -23 -23 -6 -35 -66 -14 -74 7 -3 13 -14 13 -24 0 -10 5
-19 10 -19 6 0 10 -8 9 -17 0 -12 -2 -13 -6 -5 -4 10 -8 10 -19 1 -16 -13 -19
-33 -4 -24 5 3 7 0 4 -8 -3 -8 -1 -18 5 -22 6 -3 11 -11 11 -16 0 -6 -4 -7
-10 -4 -5 3 -10 -3 -10 -14 0 -11 5 -23 10 -26 13 -8 13 -52 -1 -57 -5 -2 -7
-11 -4 -20 4 -9 13 -14 21 -11 8 3 14 0 14 -6 0 -6 8 -11 19 -11 21 0 22 -23
2 -59 -12 -21 -11 -25 4 -34 17 -9 16 -11 -6 -28 -21 -16 -22 -19 -7 -24 14
-6 15 -10 6 -25 -9 -14 -9 -22 2 -36 8 -9 13 -27 12 -39 -2 -14 3 -25 13 -29
10 -3 15 -12 11 -21 -3 -8 -1 -17 3 -20 14 -8 20 -59 9 -73 -17 -20 5 -37 31
-23 17 10 20 9 15 -4 -4 -8 -10 -15 -14 -15 -5 0 -6 -16 -3 -35 4 -26 2 -36
-11 -41 -9 -4 -16 -17 -16 -34 0 -33 21 -54 38 -40 9 7 9 7 2 -2 -6 -7 -18
-13 -28 -13 -18 0 -25 -30 -7 -30 6 -1 20 -6 33 -14 20 -10 21 -15 10 -28 -10
-13 -10 -17 0 -20 18 -7 15 -23 -10 -44 -13 -10 -17 -18 -10 -19 6 0 12 -7 12
-16 0 -8 7 -22 15 -31 12 -12 13 -18 4 -29 -10 -12 -9 -18 1 -27 10 -9 13 -9
17 1 3 6 12 12 21 11 11 0 12 -2 5 -6 -15 -6 -17 -39 -3 -48 10 -6 7 -68 -5
-98 -11 -27 2 -63 31 -82 24 -16 26 -16 21 -1 -4 9 -2 16 4 16 5 0 12 -6 15
-13 6 -18 48 -24 77 -12 10 4 17 3 17 -4 0 -17 15 -13 43 13 14 13 32 26 39
29 10 4 11 7 1 18 -17 18 -16 29 2 29 8 0 16 9 17 20 0 11 1 26 2 33 1 7 -8
11 -19 9 -18 -4 -18 -2 5 23 23 24 24 27 7 36 -9 6 -15 15 -11 20 3 5 0 17 -8
26 -11 14 -10 15 10 9 12 -4 22 -3 22 3 0 5 3 16 6 24 3 9 -3 16 -15 20 -17 4
-21 13 -21 47 0 29 -6 47 -17 56 -17 13 -17 13 0 14 10 0 17 8 17 20 0 21 -24
28 -35 10 -3 -5 -11 -10 -18 -10 -6 0 -2 7 9 15 10 8 15 15 9 15 -5 0 1 7 13
16 13 9 19 20 15 27 -4 6 -8 20 -9 31 0 11 -6 22 -12 24 -8 2 -8 11 -1 28 10
28 4 68 -17 100 -10 16 -11 31 -3 58 12 44 3 65 -18 39 -8 -10 -11 -12 -7 -4
3 7 1 17 -6 21 -9 6 -8 14 6 35 17 27 17 28 -2 44 -20 17 -24 37 -10 60 6 9 0
21 -18 37 -31 29 -30 23 -10 62 14 30 14 34 -4 60 -13 18 -18 37 -15 55 6 31
11 33 40 12 19 -14 22 -13 38 11 10 16 22 23 32 20 8 -3 20 -3 26 1 7 4 26 6
43 4 19 -1 51 9 85 27 30 17 69 33 88 35 18 3 38 10 44 16 6 6 19 11 29 11 10
0 18 4 18 8 0 5 15 25 34 44 18 19 39 44 45 56 7 13 16 20 21 17 5 -3 20 1 33
10 18 12 23 22 21 50 -2 25 1 35 11 35 22 0 39 38 25 55 -9 11 -7 12 9 8 17
-4 21 -1 21 20 0 13 -7 30 -16 38 -14 11 -14 14 -1 24 23 17 33 81 13 88 -18
7 -22 37 -5 37 5 0 9 8 8 18 -1 9 0 19 1 22 2 3 4 35 5 73 2 51 -1 67 -11 67
-16 0 -19 16 -5 24 25 16 16 116 -11 116 -5 0 -8 8 -8 18 0 10 -9 28 -20 39
-17 18 -17 23 -5 33 22 18 18 29 -10 40 -23 9 -24 13 -14 31 9 18 6 26 -20 53
-17 18 -31 37 -31 44 0 7 -4 12 -10 12 -5 0 -6 8 -3 17 5 13 2 15 -11 10 -25
-10 -40 2 -25 20 10 12 10 16 -1 23 -8 5 -18 6 -22 4 -4 -3 -8 4 -8 16 0 24
-45 73 -62 68 -6 -2 -22 6 -36 19 -13 12 -28 20 -33 18 -4 -3 -11 -1 -14 5 -4
6 -16 8 -27 4 -12 -3 -24 -1 -28 6 -4 6 -36 14 -71 16 -35 2 -73 6 -85 9 -12
2 -23 2 -26 -1z m-58 -123 c0 -6 12 -6 30 -1 17 5 43 5 60 0 18 -5 32 -5 36 1
3 5 12 2 21 -6 9 -9 22 -14 29 -11 7 3 16 1 20 -5 3 -6 12 -8 20 -5 11 4 14
-1 12 -22 -2 -22 1 -26 16 -24 14 3 18 -1 14 -16 -3 -12 2 -23 13 -31 11 -6
19 -7 19 -1 0 5 7 7 16 3 11 -4 12 -9 5 -16 -16 -16 -14 -23 15 -52 17 -17 24
-33 21 -46 -3 -10 -2 -19 1 -19 4 0 13 -13 20 -30 10 -21 10 -34 2 -49 -8 -16
-7 -28 5 -50 8 -17 15 -37 15 -46 0 -9 5 -13 10 -10 18 11 40 -22 40 -60 0
-20 -4 -34 -9 -31 -5 3 -14 -1 -21 -8 -9 -12 -7 -17 9 -26 12 -6 21 -17 21
-25 0 -8 5 -15 10 -15 6 0 10 5 10 10 0 25 17 7 18 -19 0 -20 -4 -28 -11 -25
-7 2 -21 -2 -32 -10 -18 -13 -19 -18 -8 -46 10 -27 10 -31 -3 -26 -17 6 -11
-28 14 -83 14 -30 14 -34 -1 -43 -20 -11 -22 -39 -5 -56 9 -10 8 -16 -5 -29
-16 -16 -17 -16 -17 -1 0 25 -16 30 -17 5 -1 -12 -7 -23 -13 -25 -5 -2 -10
-10 -10 -18 0 -8 -5 -14 -10 -14 -10 0 -29 -39 -34 -69 -3 -17 -26 -28 -26
-12 0 14 -53 8 -58 -7 -5 -15 20 -16 36 0 9 9 12 8 12 -4 0 -19 -84 -62 -122
-61 -16 0 -28 -4 -28 -8 0 -5 -6 -9 -13 -9 -8 0 -22 -9 -32 -20 -14 -16 -26
-19 -51 -14 -17 3 -40 1 -50 -4 -22 -11 -84 -4 -84 9 0 5 7 9 16 9 20 0 49 69
35 83 -6 6 -11 18 -11 27 0 9 -9 25 -20 35 -11 10 -18 20 -15 23 3 3 -3 14
-12 25 -17 19 -17 19 5 13 25 -8 27 -1 8 33 -8 14 -11 32 -8 40 4 10 1 13 -11
8 -22 -8 -22 1 0 25 12 14 14 23 6 40 -6 13 -6 40 -1 66 4 24 6 53 4 65 -3 12
-5 35 -5 50 -1 20 -5 26 -13 21 -8 -5 -8 -1 1 10 11 13 12 22 4 35 -6 9 -9 34
-6 55 2 21 -1 44 -7 51 -8 10 -8 19 2 36 10 17 10 23 1 26 -17 6 -16 35 2 59
19 25 19 103 -1 142 -14 28 -14 34 0 53 9 14 13 33 9 50 -4 24 1 35 37 69 39
38 70 51 70 31z"/>
<path d="M5071 3874 c-18 -9 -29 -10 -44 -1 -15 9 -21 9 -24 0 -3 -7 -13 -13
-24 -13 -10 0 -19 -4 -19 -10 0 -5 -4 -10 -10 -10 -5 0 -10 7 -10 15 0 8 -4
15 -10 15 -10 0 -14 -15 -11 -34 1 -5 -7 -6 -18 -3 -13 3 -18 1 -14 -8 6 -17
-33 -40 -42 -25 -11 18 -22 10 -28 -20 -5 -23 -10 -28 -23 -23 -14 5 -16 1
-12 -19 4 -19 1 -25 -9 -21 -8 3 -13 -3 -13 -18 0 -13 -12 -35 -25 -48 -14
-13 -25 -29 -25 -37 0 -8 -6 -14 -14 -14 -16 0 -28 -24 -20 -44 3 -8 -5 -21
-18 -30 l-23 -16 22 -6 c19 -5 20 -9 10 -25 -6 -10 -17 -19 -24 -19 -8 0 -11
-10 -7 -29 5 -21 1 -34 -15 -50 -22 -22 -29 -61 -11 -61 6 0 10 -5 10 -11 0
-5 -4 -8 -9 -5 -13 9 -32 -19 -25 -37 3 -9 0 -29 -8 -44 -15 -30 -18 -149 -5
-170 5 -8 3 -13 -3 -13 -7 0 -9 -7 -6 -16 4 -9 2 -22 -4 -29 -15 -18 -20 -133
-6 -138 8 -3 7 -9 -1 -18 -16 -16 -17 -46 -2 -51 14 -5 18 -129 5 -146 -6 -9
-6 -16 1 -20 6 -4 14 -22 18 -39 3 -18 12 -33 20 -33 7 0 15 -19 19 -49 5 -41
10 -50 29 -53 12 -2 26 -12 32 -23 16 -31 48 -65 62 -65 7 0 13 -5 13 -11 0
-5 14 -15 30 -20 17 -6 30 -18 30 -26 0 -9 6 -12 18 -9 21 7 36 -3 45 -27 4
-10 15 -17 24 -15 11 2 22 -6 28 -19 11 -25 25 -31 25 -10 0 7 4 5 10 -4 7
-12 23 -16 56 -15 36 1 49 -3 60 -19 8 -10 14 -16 14 -12 0 4 8 3 19 -2 23
-13 35 -3 20 16 -9 10 -8 13 4 13 8 0 17 -5 19 -12 3 -7 13 -5 32 7 l27 18 -7
-26 c-5 -21 -2 -27 10 -27 9 0 16 7 16 15 0 8 5 15 10 15 6 0 8 -11 4 -27 -6
-22 -4 -25 10 -20 10 4 22 7 27 7 5 0 9 6 9 14 0 9 7 12 18 9 10 -2 24 3 31
11 8 9 25 16 40 16 15 0 31 4 37 10 6 6 21 6 42 1 34 -10 41 -4 20 18 -11 10
-9 15 5 26 11 7 25 11 33 8 8 -3 21 0 29 7 11 9 15 9 15 1 0 -6 -11 -16 -25
-21 -31 -12 -33 -36 -4 -43 17 -5 20 -11 15 -31 -7 -29 1 -33 29 -12 17 12 17
16 6 30 -12 14 -12 16 4 10 9 -4 20 -3 24 2 3 5 18 20 33 33 22 19 30 22 42
12 12 -10 16 -8 21 9 3 11 11 18 16 14 6 -3 9 0 8 7 -3 21 12 49 26 49 8 0 10
-9 7 -25 -5 -28 0 -30 31 -14 31 16 30 14 34 60 3 26 1 39 -6 35 -6 -4 -8 -13
-5 -20 7 -18 -40 -30 -65 -16 -10 5 -24 23 -29 40 -13 35 -32 40 -32 8 0 -18
-6 -23 -26 -25 -15 0 -30 -7 -35 -15 -6 -9 -9 -6 -9 12 -1 24 -1 24 -15 6 -7
-10 -25 -19 -39 -20 -16 0 -26 -7 -26 -17 0 -9 -7 -16 -15 -16 -11 0 -12 4 -3
14 15 18 2 29 -16 14 -8 -7 -20 -10 -25 -7 -5 4 -13 2 -16 -4 -5 -8 -11 -7
-21 1 -11 9 -18 8 -32 -3 -27 -24 -45 -26 -65 -8 -18 17 -62 15 -110 -5 -9 -4
-23 -3 -30 3 -6 5 -39 9 -72 7 -33 -1 -54 0 -47 2 6 3 12 9 12 14 0 6 -4 8 -8
5 -5 -3 -20 1 -34 8 -14 8 -37 12 -50 9 -15 -3 -31 2 -41 11 -8 9 -22 13 -30
10 -8 -3 -18 -1 -22 5 -3 6 -13 11 -21 11 -16 0 -54 35 -54 50 0 6 -9 10 -20
10 -11 0 -20 4 -20 9 0 5 -11 12 -25 15 -21 5 -25 12 -25 41 0 25 -6 37 -22
46 -13 6 -24 13 -26 14 -2 2 4 18 14 37 11 22 19 28 21 18 12 -42 13 -43 28
-30 19 16 111 4 119 -16 8 -21 53 -17 69 7 12 17 19 19 35 10 12 -6 23 -7 26
-2 3 5 14 7 25 4 11 -3 21 2 25 13 6 16 8 15 27 -5 22 -24 34 -19 41 14 3 15
10 19 32 17 28 -3 28 -2 21 34 -5 31 -4 36 7 27 11 -9 19 -4 37 22 13 19 32
37 42 40 11 4 19 16 19 29 0 13 7 29 15 36 8 7 15 18 15 25 0 7 7 15 15 19 8
3 15 10 15 16 0 5 -7 10 -15 10 -21 0 -19 16 8 40 21 20 21 22 4 31 -17 10
-16 12 3 36 13 16 18 34 14 48 -3 13 -1 26 5 29 6 4 11 17 11 28 0 20 -1 21
-20 3 -31 -28 -24 -3 10 35 28 31 28 34 12 47 -9 8 -12 12 -5 9 6 -4 14 -2 18
4 3 5 1 10 -4 10 -17 0 -13 41 5 62 16 16 15 19 -7 37 l-23 19 18 41 c16 33
17 43 6 56 -11 13 -10 14 3 10 8 -4 18 -2 22 4 3 6 -1 14 -10 17 -13 5 -15 15
-11 40 6 31 5 33 -21 31 -20 -1 -28 3 -31 17 -3 13 0 17 10 13 8 -3 19 3 25
12 18 28 -1 96 -37 138 -41 48 -109 103 -126 103 -8 0 -14 5 -14 11 0 7 -11 8
-30 4 -35 -8 -67 1 -72 18 -2 10 -8 10 -27 1z m35 -150 c5 -21 11 -25 30 -21
13 2 29 -2 35 -9 6 -8 16 -14 22 -14 6 0 18 -7 28 -16 14 -13 16 -20 6 -35 -9
-14 -8 -29 1 -64 12 -47 9 -70 -9 -59 -6 3 -7 -4 -3 -20 4 -16 1 -32 -6 -42
-10 -11 -10 -18 -2 -26 7 -7 7 -19 1 -35 -7 -18 -5 -28 7 -40 14 -15 14 -17 0
-25 -9 -5 -13 -14 -9 -21 10 -16 10 -61 0 -68 -10 -7 2 -59 14 -59 5 0 9 -4 9
-10 0 -5 -7 -10 -15 -10 -8 0 -15 -2 -15 -5 0 -3 7 -22 15 -42 19 -44 19 -47
0 -39 -17 6 -49 -58 -41 -80 3 -7 -11 -22 -30 -33 -19 -12 -32 -25 -29 -31 8
-12 -26 -59 -42 -60 -7 0 -13 -5 -13 -11 0 -6 7 -8 16 -5 10 4 14 1 12 -6 -3
-7 -9 -14 -14 -14 -33 -5 -55 -18 -50 -31 4 -11 1 -11 -14 -3 -14 7 -26 8 -39
0 -14 -7 -22 -7 -26 0 -5 8 -11 8 -20 0 -20 -17 -104 -18 -110 -2 -4 11 -9 10
-26 -1 -18 -13 -22 -13 -42 7 -16 16 -22 34 -22 63 0 23 4 45 8 49 4 4 7 0 7
-10 0 -9 4 -15 9 -12 9 6 7 47 -5 99 -5 20 -1 33 12 48 12 14 13 18 3 15 -8
-3 -21 -1 -29 5 -13 8 -12 12 8 26 29 20 28 37 -2 29 -21 -5 -24 -2 -22 19 1
21 3 23 12 10 20 -26 27 -16 21 29 -5 37 -3 46 18 64 27 24 31 42 13 60 -6 6
-8 15 -4 19 4 4 11 1 16 -7 8 -12 10 -11 11 5 1 11 1 28 1 38 -2 14 3 16 23
11 19 -5 25 -2 25 10 0 9 -6 16 -12 15 -29 -3 -38 2 -38 22 0 11 5 17 10 14
16 -10 43 23 42 53 0 15 3 29 7 32 3 3 18 22 34 42 23 31 25 41 17 63 -13 35
-13 45 4 45 8 0 13 -7 12 -16 0 -9 5 -19 12 -21 20 -7 14 35 -8 59 -23 25 -26
38 -7 38 12 0 25 -14 46 -48 12 -19 75 13 67 34 -7 17 15 19 32 2 9 -9 15 -9
24 0 9 9 9 15 0 24 -15 15 -16 28 -2 28 5 0 13 -12 16 -26z"/>
<path d="M10196 3881 c-5 -7 -17 -10 -28 -8 -28 8 -66 -12 -71 -37 -4 -21 -5
-21 -12 2 -9 27 -14 27 -31 5 -9 -12 -13 -14 -14 -5 0 21 -20 3 -20 -19 0 -17
-3 -18 -20 -9 -11 6 -20 7 -19 3 4 -22 -3 -31 -25 -37 -14 -3 -28 -15 -31 -26
-3 -11 -11 -20 -17 -20 -6 0 -8 -10 -4 -26 5 -17 2 -32 -8 -43 -15 -16 -31
-79 -42 -165 -2 -21 -9 -47 -15 -57 -5 -11 -9 -38 -9 -62 0 -23 -2 -62 -4 -87
-3 -25 -8 -76 -10 -115 -7 -106 -12 -138 -24 -166 -12 -31 -38 -44 -46 -23 -3
9 1 14 13 14 19 0 36 26 22 34 -4 3 -30 3 -59 0 -31 -3 -61 0 -74 7 -31 17
-88 22 -88 9 0 -6 -5 -8 -10 -5 -13 8 -31 -40 -24 -60 3 -8 14 -17 25 -20 50
-16 68 -77 27 -89 -19 -5 -20 -8 -8 -16 10 -6 16 -6 18 0 5 14 40 12 49 -2 11
-17 35 -16 49 1 9 12 13 10 25 -7 12 -17 22 -20 67 -16 54 5 52 6 56 -38 1 -7
-5 -12 -11 -11 -7 2 -13 -2 -13 -7 0 -6 6 -10 13 -10 8 0 12 -18 13 -55 0 -58
9 -79 24 -55 8 13 10 13 10 -1 0 -9 7 -20 16 -23 24 -9 27 -8 21 15 -4 16 -3
18 8 9 7 -6 15 -23 18 -38 4 -18 20 -37 47 -55 27 -17 40 -22 37 -12 -4 8 -2
17 2 20 11 6 25 -22 29 -62 1 -8 18 -13 47 -13 25 0 45 -4 45 -10 0 -13 70
-41 95 -38 19 3 19 4 -4 27 -18 18 -20 23 -7 18 10 -4 20 -7 22 -7 2 0 4 -7 4
-16 0 -11 5 -14 16 -10 11 4 18 -1 21 -14 4 -15 12 -19 37 -15 17 2 40 4 50 4
18 1 18 2 2 20 -26 28 -2 36 33 12 16 -12 37 -21 46 -21 9 0 13 -4 10 -10 -7
-11 -3 -12 19 -4 8 3 13 11 10 17 -5 15 66 16 83 2 7 -5 19 -16 28 -23 8 -7
15 -8 15 -3 0 5 -5 13 -10 16 -6 4 -10 14 -9 23 3 21 -11 54 -25 65 -6 5 -1 5
12 2 19 -5 22 -3 22 19 0 14 4 26 9 26 6 0 7 -17 4 -37 -5 -36 -4 -37 10 -18
8 11 13 24 10 28 -3 5 3 7 13 5 10 -2 24 -13 30 -26 10 -20 13 -21 24 -7 10
12 16 13 27 4 21 -18 41 4 23 25 -7 9 -16 14 -20 11 -4 -3 -19 6 -32 18 -19
17 -31 21 -47 16 -25 -10 -54 -1 -45 13 4 6 -4 8 -17 6 -18 -2 -23 -9 -22 -25
2 -21 2 -21 -24 3 -24 22 -28 23 -43 9 -21 -19 -50 -21 -32 -3 19 19 14 25
-23 26 -24 1 -38 -5 -49 -19 -17 -25 -36 -18 -29 11 6 24 -37 38 -72 22 -19
-9 -25 -8 -29 5 -5 12 -16 14 -45 10 -22 -3 -43 -1 -49 5 -5 5 -18 11 -28 12
-13 2 -18 10 -16 25 3 19 -1 22 -24 19 -24 -3 -29 1 -35 27 -4 17 -7 26 -8 22
0 -5 -14 2 -30 15 -15 12 -38 29 -49 37 -24 17 -32 39 -23 64 9 25 25 17 25
-12 1 -13 11 -30 26 -40 22 -15 24 -15 17 2 -4 12 -2 17 9 17 9 0 21 -13 27
-30 13 -33 15 -34 52 -20 17 7 25 15 21 25 -4 11 0 12 21 4 19 -7 29 -6 37 2
8 9 7 10 -6 6 -12 -4 -18 -1 -18 9 0 11 6 15 20 11 11 -3 22 -2 25 3 3 4 22 4
42 -1 37 -8 66 2 44 15 -5 4 -7 14 -4 23 4 11 3 14 -5 9 -7 -4 -12 -3 -12 3 0
6 14 7 34 4 33 -5 65 16 37 25 -8 3 -4 9 11 16 12 6 23 16 23 21 1 20 28 58
61 87 27 24 33 35 28 54 -4 15 -2 24 5 24 6 0 11 7 11 16 0 9 8 22 17 29 15
11 15 15 4 29 -8 9 -9 16 -3 16 5 0 20 33 33 73 34 104 33 101 15 94 -12 -5
-15 -1 -13 16 1 12 6 25 10 28 13 10 27 84 21 110 -4 13 -6 45 -5 71 2 42 0
47 -16 41 -16 -6 -16 -4 2 16 15 18 17 26 8 40 -7 10 -15 35 -18 55 -6 30 -11
36 -32 36 -14 0 -38 11 -54 24 -23 20 -38 24 -74 22 -32 -3 -45 0 -45 10 0 10
-17 13 -70 11 -39 -1 -71 2 -73 8 -2 5 -7 3 -11 -4z m-40 -207 c28 -14 37 -14
50 -3 9 7 36 15 60 17 42 3 50 -2 45 -31 -1 -5 3 -6 8 -3 5 4 29 8 54 10 39 4
44 2 40 -14 -3 -12 2 -20 17 -25 19 -6 22 -12 17 -45 -4 -29 -1 -40 10 -44 10
-4 13 -14 9 -29 -3 -12 -11 -53 -16 -92 -16 -107 -31 -165 -42 -165 -6 0 -7
-11 -4 -25 5 -19 3 -23 -9 -19 -10 4 -15 0 -15 -15 0 -12 -4 -21 -10 -21 -15
0 -12 -30 3 -30 7 -1 5 -6 -5 -14 -10 -7 -18 -19 -18 -25 0 -11 -26 -43 -32
-40 -3 1 -49 -17 -85 -34 -12 -5 -33 -7 -47 -3 -19 5 -26 3 -26 -9 0 -8 -7
-15 -16 -15 -8 0 -12 5 -9 10 12 19 -6 31 -22 15 -12 -12 -18 -13 -29 -4 -8 6
-25 8 -38 5 -15 -4 -26 -1 -29 7 -4 9 -7 9 -18 0 -7 -7 -23 -13 -35 -13 -21 0
-21 3 -19 125 2 73 -1 127 -6 131 -6 4 -5 14 4 27 18 29 29 87 17 87 -16 0
-11 40 5 46 8 4 12 10 9 15 -3 5 -10 7 -15 4 -14 -9 -11 8 12 54 11 24 18 49
15 57 -6 15 38 61 67 70 10 3 16 11 14 17 -4 11 28 36 46 37 5 0 24 -7 43 -16z"/>
<path d="M3348 3826 c-16 -5 -28 -15 -28 -22 0 -10 -29 -25 -55 -28 -16 -2
-35 -23 -35 -39 0 -15 -31 -47 -47 -47 -17 0 -56 -49 -50 -64 3 -8 -1 -20 -9
-27 -10 -8 -11 -15 -3 -25 7 -9 7 -19 -1 -34 -6 -12 -9 -28 -6 -35 3 -8 2 -15
-2 -17 -4 -2 -17 -16 -30 -32 -17 -22 -20 -32 -11 -43 9 -10 9 -19 -1 -38 -7
-13 -10 -38 -8 -56 3 -18 -2 -45 -10 -63 -18 -35 -19 -104 -3 -134 14 -27 14
-32 -4 -32 -18 0 -20 -31 -3 -48 9 -9 9 -12 0 -12 -7 0 -12 -11 -12 -25 0 -14
5 -25 10 -25 6 0 10 -4 10 -10 0 -5 -7 -7 -15 -4 -11 5 -15 -1 -16 -22 -1 -16
0 -33 1 -39 1 -5 4 -28 5 -50 5 -58 24 -127 41 -146 8 -9 14 -20 13 -25 -4
-22 2 -34 16 -34 8 0 15 -6 15 -12 0 -15 124 -138 139 -138 5 0 12 -8 16 -18
3 -11 23 -28 45 -38 22 -10 40 -23 40 -27 0 -5 14 -6 30 -2 22 5 30 3 30 -7 0
-13 37 -43 55 -43 6 0 16 -4 23 -8 7 -5 19 -2 28 7 8 9 19 16 24 16 11 0 21
-30 14 -41 -7 -11 -1 -11 30 0 18 7 28 6 36 -5 7 -7 20 -14 29 -14 9 0 25 -7
35 -15 28 -21 50 -18 61 8 6 12 19 22 30 23 11 1 37 2 59 3 36 1 38 3 32 26
-6 25 7 35 19 15 10 -16 35 8 35 32 0 11 5 28 10 39 9 15 7 19 -7 20 -10 1
-34 2 -53 4 -19 2 -54 -4 -78 -11 -43 -15 -68 -11 -56 8 4 7 -2 8 -17 3 -31
-10 -28 -10 -73 0 -28 6 -41 4 -47 -6 -8 -11 -13 -10 -28 9 -11 12 -31 22 -45
22 -15 0 -29 7 -32 15 -4 8 -10 15 -15 15 -5 0 -9 -7 -9 -15 0 -25 -17 -17
-24 11 -5 19 -12 25 -25 21 -11 -2 -23 3 -30 15 -8 13 -18 17 -32 13 -15 -5
-22 -2 -26 14 -3 12 -10 21 -17 21 -14 1 -81 63 -89 84 -4 9 -11 16 -16 16 -6
0 -15 9 -20 19 -9 16 -8 18 8 14 10 -3 22 0 25 6 4 7 -1 11 -12 11 -22 0 -34
22 -26 45 4 8 0 22 -7 31 -11 13 -10 17 4 25 21 12 22 29 2 29 -8 0 -15 6 -15
14 0 18 40 28 56 15 9 -7 19 -7 33 0 11 6 26 8 34 5 8 -3 18 -1 22 5 3 6 15
11 27 11 16 0 20 -5 16 -27 -3 -25 0 -28 25 -29 23 -1 28 2 24 17 -7 26 7 24
26 -3 13 -19 16 -20 16 -6 1 15 8 17 54 12 28 -3 58 -6 65 -6 6 -1 12 -6 12
-11 0 -5 6 -7 14 -4 7 3 18 1 24 -5 8 -8 13 -7 18 5 3 9 14 17 24 17 31 0 104
37 118 59 7 12 20 20 30 19 12 -2 17 4 17 25 1 17 8 33 18 39 10 5 14 14 10
21 -4 7 -8 36 -9 65 -1 38 2 52 12 52 8 0 14 6 14 13 0 6 14 30 30 51 30 39
39 76 20 76 -5 0 -10 5 -10 10 0 6 7 10 15 10 22 0 18 21 -5 27 -15 4 -20 14
-20 38 0 18 5 35 11 37 6 2 13 15 14 30 3 22 0 25 -19 20 -17 -5 -19 -3 -9 9
13 15 11 49 -4 87 -9 23 -32 40 -85 64 -15 7 -28 21 -30 32 -2 10 -18 26 -35
35 -18 9 -33 22 -33 29 0 6 -7 12 -15 12 -9 0 -18 7 -21 15 -4 8 -17 15 -30
15 -14 0 -27 7 -30 15 -3 8 -18 14 -32 14 -30 -1 -147 9 -147 11 0 8 -65 5
-87 -4z m206 -161 c3 -9 19 -15 41 -15 19 0 35 -5 35 -11 0 -6 9 -9 20 -6 12
3 25 -1 33 -11 7 -10 21 -22 32 -28 11 -6 21 -24 23 -40 1 -16 7 -38 12 -49
17 -41 19 -67 4 -61 -11 4 -13 0 -8 -19 3 -13 2 -30 -3 -37 -4 -7 -9 -38 -10
-68 -7 -137 -9 -156 -22 -180 -20 -37 -44 -56 -64 -52 -10 2 -26 0 -35 -4 -9
-4 -23 -6 -30 -5 -7 1 -15 -5 -18 -14 -4 -10 -10 -12 -18 -6 -6 5 -40 8 -76 7
-36 -1 -71 2 -77 7 -9 7 -13 4 -13 -9 -1 -18 -1 -18 -11 -1 -6 9 -15 14 -22
10 -6 -3 -33 -8 -60 -9 -74 -4 -90 23 -45 73 24 26 15 47 -15 37 -19 -6 -20
-5 -10 8 7 8 11 17 8 20 -3 3 1 11 10 18 19 16 19 40 0 40 -22 0 -18 27 5 33
23 6 17 37 -6 37 -19 0 -18 16 4 38 9 10 23 28 30 40 12 21 8 26 -18 24 -4 0
-6 14 -6 31 0 28 3 32 26 32 25 0 27 5 14 39 -6 16 -5 17 16 6 28 -15 43 -2
43 40 0 26 4 31 20 26 13 -3 21 1 24 15 3 10 9 17 13 14 4 -3 10 5 13 16 5 17
9 19 25 10 13 -7 23 -7 32 2 10 10 12 8 7 -6 -4 -11 -3 -16 4 -12 5 4 16 1 24
-5 13 -10 15 -8 15 14 0 28 24 36 34 11z"/>
<path d="M11849 3603 c-24 -12 -56 -25 -71 -28 -19 -4 -28 -12 -28 -25 0 -11
-3 -19 -7 -19 -5 1 -19 1 -32 0 -20 -1 -22 -5 -17 -27 6 -22 4 -25 -10 -20
-13 5 -15 2 -11 -13 3 -12 0 -18 -7 -15 -18 6 -38 -12 -34 -32 2 -11 -6 -30
-19 -43 -12 -14 -20 -28 -17 -33 3 -4 -2 -8 -10 -8 -18 0 -22 -25 -5 -36 8 -4
8 -9 0 -17 -6 -6 -11 -20 -11 -31 0 -17 -2 -18 -10 -6 -8 12 -10 9 -10 -12 0
-14 -6 -28 -12 -31 -10 -3 -10 -7 -2 -18 6 -8 14 -23 18 -34 6 -16 5 -18 -5
-7 -18 17 -27 15 -31 -5 -2 -10 3 -23 11 -29 13 -10 12 -12 -6 -18 -12 -4 -22
-15 -22 -24 0 -21 -7 -108 -17 -222 -13 -139 -6 -339 13 -375 6 -11 14 -35 18
-52 4 -23 12 -33 25 -33 25 0 33 -15 20 -40 -9 -16 -8 -20 5 -20 8 0 20 -12
25 -26 18 -46 52 -69 63 -41 3 7 6 5 6 -5 1 -11 6 -15 15 -12 11 4 13 0 9 -15
-7 -28 15 -27 27 2 7 18 9 18 9 4 1 -10 4 -16 9 -13 4 2 16 -3 27 -11 14 -11
16 -17 8 -20 -7 -3 -13 -9 -13 -15 0 -6 7 -8 15 -5 8 4 17 2 20 -3 3 -5 14 -1
24 9 13 13 31 17 67 16 33 -1 55 3 68 14 18 15 19 15 14 -6 -4 -13 -2 -23 3
-23 5 0 9 -7 9 -15 0 -10 10 -15 34 -15 19 0 41 -3 50 -6 11 -4 16 -1 16 10 0
9 -5 16 -12 16 -6 0 -9 2 -6 5 12 12 38 -8 33 -25 -7 -22 17 -33 35 -17 10 9
11 9 6 0 -8 -15 8 -25 27 -17 9 3 13 12 10 20 -3 8 0 14 7 14 6 0 18 7 26 15
17 16 44 20 44 6 0 -7 20 -8 52 -2 4 0 14 14 23 31 12 23 13 34 3 54 -14 32
-52 58 -72 50 -11 -4 -16 0 -16 10 0 14 -6 16 -35 10 -23 -4 -35 -2 -35 5 0 7
-13 -2 -30 -19 -31 -32 -40 -36 -40 -20 0 6 -8 18 -19 29 -10 10 -21 25 -24
32 -4 11 -7 12 -18 2 -17 -17 -29 -16 -29 1 0 11 -10 13 -40 9 -30 -4 -40 -2
-40 8 0 11 -21 15 -83 17 -142 6 -147 6 -147 21 0 7 -12 22 -26 33 -18 15 -24
27 -20 41 3 12 0 27 -6 34 -7 9 -7 13 1 13 6 0 11 6 11 13 0 27 17 40 36 28
17 -9 17 -10 2 -11 -17 0 -24 -20 -12 -32 10 -11 44 4 44 19 0 20 55 10 82
-14 10 -9 18 -12 18 -8 0 5 7 0 15 -11 14 -19 15 -19 21 4 6 22 24 31 24 12 0
-16 20 -12 27 6 3 9 0 20 -8 25 -10 6 -10 9 -1 9 6 0 14 -1 16 -2 2 -2 13 5
24 15 23 21 37 9 27 -22 -3 -11 -1 -22 5 -26 5 -3 10 1 10 9 0 9 6 16 14 16 8
0 21 3 30 6 12 4 16 0 16 -15 0 -21 1 -21 30 -6 37 19 40 19 40 -4 0 -11 9
-21 21 -24 12 -3 18 -3 15 0 -3 3 -1 13 4 23 11 21 60 16 60 -6 0 -8 5 -14 10
-14 6 0 10 7 10 15 0 9 6 12 17 8 13 -5 15 -2 10 18 -6 24 -6 24 11 4 22 -25
62 -22 62 6 0 12 10 23 26 29 14 6 28 19 31 30 3 11 10 20 15 20 5 0 18 10 29
23 12 14 17 16 13 6 -7 -21 15 -36 26 -19 5 7 6 28 3 47 -4 26 -2 33 10 33 22
0 30 16 19 37 -5 10 -6 27 -1 38 4 11 8 14 8 8 1 -18 31 -16 31 2 0 8 6 15 13
15 21 0 70 46 63 59 -4 6 0 11 8 11 20 0 21 16 1 24 -22 8 -18 28 4 21 25 -8
35 41 15 72 -12 19 -12 22 2 25 13 2 17 17 18 61 0 31 -2 57 -6 57 -3 0 -1 16
5 36 9 29 8 40 -6 64 -9 15 -14 35 -11 44 3 9 2 22 -4 29 -5 6 -8 20 -7 29 2
9 -4 19 -12 22 -9 4 -13 13 -9 21 10 27 -26 78 -63 90 -16 5 -20 10 -11 15 9
5 9 9 1 14 -6 4 -15 4 -21 1 -5 -3 -10 2 -10 13 0 18 -31 25 -45 10 -10 -10
-43 3 -49 18 -6 17 -46 19 -46 2 0 -7 -7 -5 -18 5 -17 16 -45 18 -58 4 -10 -9
-34 12 -34 30 0 10 -6 13 -16 9 -39 -15 -64 -18 -64 -7 0 8 -43 10 -143 9
-125 -3 -149 -6 -188 -25z m112 -147 c-12 -14 -3 -29 27 -45 19 -10 23 -9 29
4 5 14 8 14 15 3 7 -10 11 -10 15 0 2 6 12 12 22 12 9 0 23 6 29 12 10 10 15
10 21 0 7 -11 10 -10 15 3 3 9 10 14 15 10 6 -3 14 2 19 11 6 11 12 13 16 6 4
-6 13 -9 20 -6 8 3 17 -3 20 -13 9 -27 49 -41 106 -37 31 2 49 0 45 -6 -3 -6
5 -10 19 -10 14 0 26 5 26 12 0 6 3 8 6 5 4 -4 1 -13 -6 -22 -14 -17 -15 -17
23 -33 30 -13 59 -6 36 9 -20 12 -4 22 21 14 16 -5 20 -13 16 -27 -2 -12 2
-52 11 -89 8 -38 12 -77 8 -86 -14 -32 -16 -56 -5 -63 7 -4 6 -16 -5 -36 -8
-16 -15 -25 -15 -19 0 5 -5 4 -11 -2 -8 -8 -8 -17 -1 -29 8 -15 4 -24 -22 -49
-27 -25 -32 -37 -31 -69 2 -35 0 -37 -12 -21 -12 18 -13 18 -13 -3 0 -12 -5
-22 -11 -22 -7 0 -9 -10 -5 -25 5 -21 3 -25 -14 -25 -11 0 -24 -8 -28 -17 -8
-20 -32 -29 -32 -13 0 5 -10 10 -21 10 -16 0 -20 -5 -16 -20 3 -12 0 -20 -7
-20 -7 0 -18 -12 -25 -27 l-13 -28 -20 28 -20 27 -29 -31 c-18 -19 -33 -28
-41 -23 -22 14 -108 16 -124 4 -10 -9 -14 -9 -14 -1 0 15 -47 14 -54 -1 -3
-10 -8 -8 -19 4 -8 10 -22 15 -34 12 -11 -3 -24 -1 -27 4 -11 18 -76 -9 -77
-32 -1 -18 -2 -18 -6 -3 -3 12 -10 16 -20 13 -9 -4 -21 -1 -29 4 -7 6 -33 12
-58 13 -27 1 -46 7 -46 14 0 6 -6 13 -12 16 -10 3 -10 8 1 21 12 14 12 19 2
25 -10 7 -10 9 2 14 11 4 14 21 12 71 -1 52 1 66 13 66 10 0 12 7 8 25 -5 18
-3 24 6 23 9 -2 13 11 11 44 -1 30 3 47 10 45 6 -1 12 3 12 8 1 6 4 17 8 25
12 33 14 46 6 73 -7 25 -5 27 19 27 25 1 26 2 9 14 -16 12 -16 15 -2 29 8 9
15 20 15 26 0 6 5 11 10 11 6 0 10 10 11 23 1 21 1 21 9 -3 8 -25 8 -25 15 7
4 18 10 31 14 30 3 -1 23 8 43 20 29 17 35 26 31 44 -4 15 -3 20 5 15 7 -4 12
-3 12 3 0 12 52 39 63 33 4 -2 4 -9 -2 -16z"/>
</g>
</svg>
